<svg version="1.1" xmlns="http://www.w3.org/2000/svg" xmlns:xlink="http://www.w3.org/1999/xlink" x="0px" y="0px" viewBox="0 0 605.8 31.3">
    <path fill="#283136" d="M32.7,1.3h3.7l-15,28.5h-5.2L1.2,1.3h4.1L19,27.4L32.7,1.3z" />
    <path fill="#283136" d="M41.6,29.8V1.3h3.6v25.5h22.6v3H41.6z" />
    <path fill="#283136" d="M100.2,23.3H77.9l-3.7,6.5h-4.1L86.3,1.3h5.1l16.2,28.5h-3.7L100.2,23.3z M98.5,20.3L89.1,3.7l-9.5,16.6H98.5z" />
    <path fill="#283136" d="M112.8,29.8V1.3h21.4c2.2,0,4,0.1,5.5,0.4c1.5,0.3,2.7,0.6,3.7,1.2c1,0.5,1.7,1.2,2.2,1.9c0.5,0.8,0.9,1.7,1.2,2.8
										s0.4,2.3,0.4,3.6c0,1.3,0.1,2.8,0.1,4.4c0,1.6,0,3.1-0.1,4.4c0,1.3-0.2,2.5-0.4,3.6s-0.6,2-1.2,2.8c-0.5,0.8-1.3,1.4-2.2,1.9
										c-1,0.5-2.2,0.9-3.7,1.2c-1.5,0.3-3.3,0.4-5.5,0.4H112.8z M134.2,26.8c1.6,0,2.9,0,4-0.1c1.1-0.1,2-0.3,2.7-0.5
										c0.7-0.3,1.2-0.7,1.6-1.2c0.4-0.5,0.7-1.2,0.8-2c0.2-0.8,0.3-1.9,0.3-3.1c0-1.2,0-2.7,0-4.4c0-1.7,0-3.2,0-4.4
										c0-1.2-0.1-2.2-0.3-3.1c-0.2-0.8-0.5-1.5-0.8-2c-0.4-0.5-0.9-0.9-1.6-1.2c-0.7-0.3-1.6-0.4-2.7-0.5c-1.1-0.1-2.4-0.1-4-0.1h-17.8
										v22.6H134.2z" />
    <path fill="#283136" d="M152,1.3h4.8l13.1,13.9l13.1-13.9h4.8l-16,16.6v11.9H168V17.9L152,1.3z" />
    <path fill="#283136" d="M212,13.8c2,0,3.6,0.1,5,0.2c1.4,0.2,2.6,0.4,3.5,0.7c1,0.3,1.7,0.7,2.3,1.2c0.6,0.5,1,1,1.3,1.6c0.3,0.6,0.5,1.3,0.6,2
										s0.1,1.6,0.1,2.4c0,0.9-0.1,1.7-0.2,2.4c-0.2,0.8-0.4,1.5-0.8,2.1c-0.4,0.6-0.9,1.2-1.6,1.7c-0.7,0.5-1.5,0.9-2.6,1.3
										c-1.1,0.3-2.3,0.6-3.8,0.8c-1.5,0.2-3.2,0.3-5.2,0.3h-4.8c-1.8,0-3.3-0.1-4.7-0.2c-1.3-0.1-2.5-0.3-3.5-0.6s-1.8-0.6-2.4-1.1
										s-1.1-0.9-1.5-1.5c-0.4-0.6-0.6-1.2-0.8-2c-0.1-0.7-0.2-1.5-0.2-2.4h3.6c0,1.1,0.2,2,0.5,2.7c0.3,0.6,0.9,1.1,1.6,1.4
										c0.7,0.3,1.7,0.5,2.9,0.6c1.2,0.1,2.7,0.1,4.5,0.1h4.8c2.1,0,3.8-0.1,5.2-0.3s2.5-0.5,3.3-1s1.4-1,1.7-1.7c0.3-0.7,0.5-1.6,0.5-2.6
										c0-1-0.1-1.8-0.3-2.5c-0.2-0.7-0.7-1.2-1.4-1.6c-0.7-0.4-1.6-0.7-2.8-0.8c-1.2-0.2-2.8-0.3-4.8-0.3h-4.9c-2.2,0-4-0.1-5.6-0.2
										c-1.6-0.2-2.9-0.4-3.9-0.7c-1.1-0.3-1.9-0.7-2.5-1.1c-0.6-0.5-1.1-1-1.4-1.5c-0.3-0.6-0.5-1.2-0.6-1.9c-0.1-0.7-0.1-1.5-0.1-2.3
										c0-0.9,0.1-1.7,0.2-2.4c0.2-0.7,0.4-1.4,0.9-2c0.4-0.6,1-1.1,1.7-1.6c0.7-0.5,1.7-0.9,2.8-1.2c1.1-0.3,2.5-0.6,4.1-0.7
										c1.6-0.2,3.5-0.2,5.7-0.2h3.6c1.8,0,3.3,0.1,4.7,0.2s2.5,0.3,3.5,0.6s1.8,0.6,2.4,1c0.6,0.4,1.1,0.9,1.5,1.5c0.4,0.6,0.6,1.2,0.8,2
										c0.1,0.7,0.2,1.5,0.2,2.4h-3.6c0-1.1-0.2-2-0.5-2.6c-0.3-0.6-0.9-1.1-1.6-1.4s-1.7-0.5-2.9-0.6c-1.2-0.1-2.7-0.1-4.5-0.1h-3.6
										c-2.4,0-4.3,0.1-5.9,0.3c-1.5,0.2-2.7,0.4-3.6,0.8c-0.9,0.4-1.5,0.9-1.9,1.6c-0.3,0.7-0.5,1.5-0.5,2.5c0,0.6,0,1.2,0.1,1.7
										c0.1,0.5,0.3,0.9,0.5,1.3c0.3,0.4,0.6,0.7,1.1,0.9c0.5,0.2,1.1,0.5,1.9,0.6c0.8,0.2,1.8,0.3,2.9,0.3c1.1,0.1,2.5,0.1,4.1,0.1H212z" />
    <path fill="#283136" d="M230.8,29.8V1.3h3.6v25.5h22.6v3H230.8z" />
    <path fill="#283136" d="M289.5,23.3h-22.3l-3.7,6.5h-4.1l16.3-28.5h5.1l16.2,28.5h-3.7L289.5,23.3z M287.8,20.3l-9.4-16.6l-9.5,16.6H287.8z" />
    <path fill="#283136" d="M331.2,1.3h3.7l-15,28.5h-5.2l-15-28.5h4.1l13.7,26.1L331.2,1.3z" />
    <path fill="#283136" d="M348.4,29.8V1.3h21.4c2.2,0,4,0.1,5.5,0.4c1.5,0.3,2.7,0.6,3.7,1.2c1,0.5,1.7,1.2,2.2,1.9c0.5,0.8,0.9,1.7,1.2,2.8
										s0.4,2.3,0.4,3.6c0,1.3,0.1,2.8,0.1,4.4c0,1.6,0,3.1-0.1,4.4c0,1.3-0.2,2.5-0.4,3.6s-0.6,2-1.2,2.8c-0.5,0.8-1.3,1.4-2.2,1.9
										c-1,0.5-2.2,0.9-3.7,1.2c-1.5,0.3-3.3,0.4-5.5,0.4H348.4z M369.7,26.8c1.6,0,2.9,0,4-0.1c1.1-0.1,2-0.3,2.7-0.5
										c0.7-0.3,1.2-0.7,1.6-1.2c0.4-0.5,0.7-1.2,0.8-2c0.2-0.8,0.3-1.9,0.3-3.1c0-1.2,0-2.7,0-4.4c0-1.7,0-3.2,0-4.4
										c0-1.2-0.1-2.2-0.3-3.1c-0.2-0.8-0.5-1.5-0.8-2c-0.4-0.5-0.9-0.9-1.6-1.2c-0.7-0.3-1.6-0.4-2.7-0.5c-1.1-0.1-2.4-0.1-4-0.1h-17.8
										v22.6H369.7z" />
    <path fill="#283136" d="M392.3,3.7v26.1h-3.6V1.3h5.7l16.6,24.9l16.6-24.9h5.9v28.5H430V4.1l-16.9,25.7h-3.6L392.3,3.7z" />
    <path fill="#283136" d="M440.7,1.3h3.6v28.5h-3.6V1.3z" />
    <path fill="#283136" d="M482.3,1.3v3H468v25.5h-3.6V4.3h-14.3v-3H482.3z" />
    <path fill="#283136" d="M520.9,29.8h-3.6v-5.3c0-0.9,0-1.6,0-2.2c0-0.6-0.1-1.2-0.3-1.6c-0.2-0.4-0.5-0.8-0.8-1.1c-0.4-0.3-0.9-0.5-1.6-0.6
										s-1.6-0.3-2.7-0.3c-1.1-0.1-2.4-0.1-4-0.1h-16v11.3h-3.6V1.3h20.2c2.2,0,4,0.1,5.5,0.2c1.5,0.2,2.7,0.4,3.7,0.7
										c1,0.3,1.7,0.7,2.2,1.2c0.5,0.5,0.9,1,1.2,1.6c0.2,0.6,0.4,1.3,0.4,2.1c0,0.8,0.1,1.6,0.1,2.5c0,1.2-0.1,2.2-0.3,3.1
										c-0.2,0.9-0.4,1.7-0.8,2.3c-0.4,0.6-0.9,1.1-1.6,1.5c-0.7,0.4-1.5,0.6-2.5,0.8c1,0.1,1.8,0.4,2.4,0.8s1.1,0.9,1.4,1.4
										c0.3,0.6,0.5,1.3,0.6,2.1c0.1,0.8,0.2,1.7,0.2,2.8V29.8z M491.8,15.6h16.6c1.6,0,2.9,0,4-0.1c1.1-0.1,2-0.2,2.7-0.3
										s1.2-0.4,1.6-0.6c0.4-0.3,0.7-0.6,0.8-1.1c0.2-0.4,0.3-1,0.3-1.6c0-0.6,0-1.4,0-2.2c0-0.8,0-1.5,0-2.1c0-0.6-0.1-1.1-0.3-1.5
										c-0.2-0.4-0.5-0.7-0.8-0.9c-0.4-0.2-0.9-0.4-1.6-0.5s-1.6-0.2-2.7-0.3c-1.1,0-2.4-0.1-4-0.1h-16.6V15.6z" />
    <path fill="#283136" d="M527.4,1.3h3.6v28.5h-3.6V1.3z" />
    <path fill="#283136" d="M538.1,29.8V1.3h28.5v3h-24.9v9.5h23.8v3h-23.8v10.1h24.9v3H538.1z" />
    <path fill="#283136" d="M600.4,1.3h3.7l-15,28.5h-5.2L569,1.3h4.1l13.7,26.1L600.4,1.3z" />
</svg>