<svg version="1.1" id="Capa_1" xmlns="http://www.w3.org/2000/svg" xmlns:xlink="http://www.w3.org/1999/xlink" x="0px" y="0px" viewBox="0 0 512 512" style="enable-background:new 0 0 512 512;" xml:space="preserve" width="70px" height="70px" fill="#fff">
<g>
	<g>
		<g>
			<path d="M486.4,110.933V51.2c0.001-2.263-0.898-4.434-2.499-6.035c-1.6-1.6-3.771-2.499-6.035-2.499h-8.533V8.533
				c0-4.713-3.82-8.533-8.533-8.533s-8.533,3.82-8.533,8.533v34.133h-8.533c-2.263-0.001-4.434,0.898-6.035,2.499
				c-1.6,1.6-2.499,3.771-2.499,6.035v59.733h-17.067V51.2c0.001-2.263-0.898-4.434-2.499-6.035c-1.6-1.6-3.771-2.499-6.035-2.499
				h-8.533V8.533c0-4.713-3.821-8.533-8.533-8.533C387.821,0,384,3.82,384,8.533v34.133h-8.533
				c-2.263-0.001-4.434,0.898-6.035,2.499c-1.6,1.6-2.499,3.771-2.499,6.035v59.733h-17.067V51.2
				c0.001-2.263-0.898-4.434-2.499-6.035c-1.6-1.6-3.771-2.499-6.035-2.499H332.8V8.533c0-4.713-3.82-8.533-8.533-8.533
				s-8.533,3.82-8.533,8.533v34.133H307.2c-2.263-0.001-4.434,0.898-6.035,2.499c-1.6,1.6-2.499,3.771-2.499,6.035v59.733H281.6
				V51.2c0.001-2.263-0.898-4.434-2.499-6.035c-1.6-1.6-3.771-2.499-6.035-2.499h-8.533V8.533C264.533,3.82,260.713,0,256,0
				s-8.533,3.82-8.533,8.533v34.133h-8.533c-2.263-0.001-4.434,0.898-6.035,2.499c-1.6,1.6-2.499,3.771-2.499,6.035v59.733h-17.067
				V51.2c0.001-2.263-0.898-4.434-2.499-6.035c-1.6-1.6-3.771-2.499-6.035-2.499h-8.533V8.533c0-4.713-3.82-8.533-8.533-8.533
				S179.2,3.82,179.2,8.533v34.133h-8.533c-2.263-0.001-4.434,0.898-6.035,2.499c-1.6,1.6-2.499,3.771-2.499,6.035v59.733h-17.067
				V51.2c0.001-2.263-0.898-4.434-2.499-6.035c-1.6-1.6-3.771-2.499-6.035-2.499H128V8.533C128,3.82,124.18,0,119.467,0
				s-8.533,3.82-8.533,8.533v34.133H102.4c-2.263-0.001-4.434,0.898-6.035,2.499c-1.6,1.6-2.499,3.771-2.499,6.035v59.733H76.8V51.2
				c0.001-2.263-0.898-4.434-2.499-6.035c-1.6-1.6-3.771-2.499-6.035-2.499h-8.533V8.533C59.733,3.82,55.913,0,51.2,0
				s-8.533,3.82-8.533,8.533v34.133h-8.533c-2.263-0.001-4.434,0.898-6.035,2.499c-1.6,1.6-2.499,3.771-2.499,6.035v59.733
				c-14.132,0.015-25.585,11.468-25.6,25.6V230.4c-0.001,2.263,0.898,4.434,2.499,6.035c1.6,1.6,3.771,2.499,6.035,2.499
				c9.426,0,17.067,7.641,17.067,17.067s-7.641,17.067-17.067,17.067c-2.263-0.001-4.434,0.898-6.035,2.499
				c-1.6,1.6-2.499,3.771-2.499,6.035v93.867c0.015,14.132,11.468,25.585,25.6,25.6V460.8c-0.001,2.263,0.898,4.434,2.499,6.035
				c1.6,1.6,3.771,2.499,6.035,2.499h8.533v34.133c0,4.713,3.82,8.533,8.533,8.533s8.533-3.82,8.533-8.533v-34.133h8.533
				c2.263,0.001,4.434-0.898,6.035-2.499c1.6-1.6,2.499-3.771,2.499-6.035v-59.733h17.067V460.8
				c-0.001,2.263,0.898,4.434,2.499,6.035c1.6,1.6,3.771,2.499,6.035,2.499h8.533v34.133c0,4.713,3.82,8.533,8.533,8.533
				s8.533-3.82,8.533-8.533v-34.133h8.533c2.263,0.001,4.434-0.898,6.035-2.499c1.6-1.6,2.499-3.771,2.499-6.035v-59.733h17.067
				V460.8c-0.001,2.263,0.898,4.434,2.499,6.035c1.6,1.6,3.771,2.499,6.035,2.499h8.533v34.133c0,4.713,3.82,8.533,8.533,8.533
				s8.533-3.82,8.533-8.533v-34.133h8.533c2.263,0.001,4.434-0.898,6.035-2.499c1.6-1.6,2.499-3.771,2.499-6.035v-59.733H230.4
				V460.8c-0.001,2.263,0.898,4.434,2.499,6.035c1.6,1.6,3.771,2.499,6.035,2.499h8.533v34.133c0,4.713,3.82,8.533,8.533,8.533
				s8.533-3.82,8.533-8.533v-34.133h8.533c2.263,0.001,4.434-0.898,6.035-2.499c1.6-1.6,2.499-3.771,2.499-6.035v-59.733h17.067
				V460.8c-0.001,2.263,0.898,4.434,2.499,6.035c1.6,1.6,3.771,2.499,6.035,2.499h8.533v34.133c0,4.713,3.82,8.533,8.533,8.533
				s8.533-3.82,8.533-8.533v-34.133h8.533c2.263,0.001,4.434-0.898,6.035-2.499c1.6-1.6,2.499-3.771,2.499-6.035v-59.733h17.067
				V460.8c-0.001,2.263,0.898,4.434,2.499,6.035c1.6,1.6,3.771,2.499,6.035,2.499H384v34.133c0,4.713,3.821,8.533,8.533,8.533
				c4.713,0,8.533-3.82,8.533-8.533v-34.133h8.533c2.263,0.001,4.434-0.898,6.035-2.499c1.6-1.6,2.499-3.771,2.499-6.035v-59.733
				H435.2V460.8c-0.001,2.263,0.898,4.434,2.499,6.035c1.6,1.6,3.771,2.499,6.035,2.499h8.533v34.133
				c0,4.713,3.821,8.533,8.533,8.533s8.533-3.82,8.533-8.533v-34.133h8.533c2.263,0.001,4.434-0.898,6.035-2.499
				c1.6-1.6,2.499-3.771,2.499-6.035v-59.733c14.132-0.015,25.585-11.468,25.6-25.6V136.533
				C511.985,122.401,500.532,110.949,486.4,110.933z M452.267,59.733h17.067V76.8h-17.067V59.733z M452.267,93.867h17.067v17.067
				h-17.067V93.867z M384,59.733h17.067V76.8H384V59.733z M384,93.867h17.067v17.067H384V93.867z M315.733,59.733H332.8V76.8
				h-17.067V59.733z M315.733,93.867H332.8v17.067h-17.067V93.867z M247.467,59.733h17.067V76.8h-17.067V59.733z M247.467,93.867
				h17.067v17.067h-17.067V93.867z M179.2,59.733h17.067V76.8H179.2V59.733z M179.2,93.867h17.067v17.067H179.2V93.867z
				 M110.933,59.733H128V76.8h-17.067V59.733z M110.933,93.867H128v17.067h-17.067V93.867z M42.667,59.733h17.067V76.8H42.667
				V59.733z M42.667,93.867h17.067v17.067H42.667V93.867z M59.733,452.267H42.667V435.2h17.067V452.267z M59.733,418.133H42.667
				v-17.067h17.067V418.133z M128,452.267h-17.067V435.2H128V452.267z M128,418.133h-17.067v-17.067H128V418.133z M196.267,452.267
				H179.2V435.2h17.067V452.267z M196.267,418.133H179.2v-17.067h17.067V418.133z M264.533,452.267h-17.067V435.2h17.067V452.267z
				 M264.533,418.133h-17.067v-17.067h17.067V418.133z M332.8,452.267h-17.067V435.2H332.8V452.267z M332.8,418.133h-17.067v-17.067
				H332.8V418.133z M401.067,452.267H384V435.2h17.067V452.267z M401.067,418.133H384v-17.067h17.067V418.133z M469.333,452.267
				h-17.067V435.2h17.067V452.267z M469.333,418.133h-17.067v-17.067h17.067V418.133z M494.933,375.467
				c-0.005,4.711-3.822,8.529-8.533,8.533H25.6c-4.711-0.005-8.529-3.822-8.533-8.533v-86.412c15.071-3.894,25.6-17.488,25.6-33.054
				c0-15.566-10.529-29.161-25.6-33.054v-86.412c0.005-4.711,3.822-8.529,8.533-8.533h460.8c4.711,0.005,8.529,3.822,8.533,8.533
				V375.467z"/>
			<path d="M256,162.133c-51.841,0-93.867,42.026-93.867,93.867s42.026,93.867,93.867,93.867s93.867-42.026,93.867-93.867
				C349.808,204.183,307.817,162.192,256,162.133z M264.533,179.703c14.523,1.617,28.277,7.366,39.632,16.563h-39.632V179.703z
				 M247.467,179.703v16.563h-39.632C219.189,187.069,232.944,181.321,247.467,179.703z M247.467,332.297
				c-14.523-1.617-28.277-7.366-39.632-16.563h39.632V332.297z M264.533,332.297v-16.563h39.632
				C292.811,324.931,279.056,330.679,264.533,332.297z M319.814,298.667H192.186c-17.315-25.81-17.315-59.524,0-85.333h127.628
				C337.129,239.143,337.129,272.857,319.814,298.667z"/>
			<path d="M273.067,230.4h-34.133c-9.421,0.011-17.056,7.645-17.067,17.067v17.067c0.011,9.421,7.645,17.056,17.067,17.067h34.133
				c9.421-0.011,17.056-7.646,17.067-17.067v-17.067C290.123,238.045,282.488,230.411,273.067,230.4z M238.933,264.533v-17.067
				h34.133l0.008,17.067H238.933z"/>
			<path d="M110.933,145.067H42.667c-4.713,0-8.533,3.821-8.533,8.533c0,4.713,3.82,8.533,8.533,8.533h68.267
				c4.713,0,8.533-3.821,8.533-8.533C119.467,148.887,115.646,145.067,110.933,145.067z"/>
			<path d="M153.6,145.067h-8.533c-4.713,0-8.533,3.821-8.533,8.533c0,4.713,3.82,8.533,8.533,8.533h8.533
				c4.713,0,8.533-3.821,8.533-8.533C162.133,148.887,158.313,145.067,153.6,145.067z"/>
			<path d="M469.333,349.867h-68.267c-4.713,0-8.533,3.82-8.533,8.533s3.821,8.533,8.533,8.533h68.267
				c4.713,0,8.533-3.82,8.533-8.533S474.046,349.867,469.333,349.867z"/>
			<path d="M366.933,349.867H358.4c-4.713,0-8.533,3.82-8.533,8.533s3.82,8.533,8.533,8.533h8.533c4.713,0,8.533-3.82,8.533-8.533
				S371.646,349.867,366.933,349.867z"/>
		</g>
	</g>
</g>
<g>
</g>
<g>
</g>
<g>
</g>
<g>
</g>
<g>
</g>
<g>
</g>
<g>
</g>
<g>
</g>
<g>
</g>
<g>
</g>
<g>
</g>
<g>
</g>
<g>
</g>
<g>
</g>
<g>
</g>
</svg>
