<svg version="1.1" id="Capa_1" xmlns="http://www.w3.org/2000/svg" xmlns:xlink="http://www.w3.org/1999/xlink" x="0px" y="0px" viewBox="0 0 512 512" style="enable-background:new 0 0 512 512;" xml:space="preserve" width="115px" height="115px">

    <polygon style="fill:#ccc;" points="256.127,17.48 133.127,85.628 133.127,221.926 256.127,290.074 379.127,221.926 379.127,85.628 " />
    <polygon style="fill:#F2F2F2;" points="133.127,221.926 256,290.004 256,153.777 133.127,85.699 " />
    <polygon style="fill:#fff;" points="133.127,85.628 256.127,153.777 379.127,85.628 256.127,17.48 " />

    <polygon style="fill:#371568;" points="379.127,222.404 256.127,290.553 256.127,426.85 379.127,494.999 502.127,426.85 502.127,290.553 " />
    <polygon style="fill:#4E1F93;" points="256.127,426.85 379,494.928 379,358.701 256.127,290.623 " />
    <polygon style="fill:#6F3BBB;" points="256.127,290.553 379.127,358.701 502.127,290.553 379.127,222.404 " />

    <polygon style="fill:#a6a36b;" points="133,222.404 10,290.553 10,426.85 133,494.999 256,426.85 256,290.553 " />
    <polygon style="fill:#C6B87B;" points="10,426.85 132.873,494.928 132.873,358.701 10,290.623 " />
    <polygon style="fill:#DDC887;" points="10,290.553 133,358.701 256,290.553 133,222.404 " />
    
    <path d="M506.847,281.327l-117.72-65.223V85.628c0-3.636-1.974-6.985-5.153-8.747l-123-68.148c-3.016-1.671-6.678-1.671-9.693,0
	l-123,68.148c-3.18,1.762-5.153,5.111-5.153,8.747v130.335L5.153,281.327C1.974,283.089,0,286.438,0,290.074v136.297
	c0,3.636,1.974,6.985,5.153,8.747l123,68.149c1.508,0.835,3.177,1.253,4.847,1.253s3.339-0.417,4.847-1.253L256,437.804
	l118.153,65.464c1.508,0.835,3.178,1.253,4.847,1.253c1.67,0,3.339-0.417,4.847-1.253l28.682-15.892
	c4.831-2.677,6.577-8.763,3.9-13.594s-8.764-6.575-13.594-3.9L389,477.547V364.115l103-57.068V420.48l-20.121,11.148
	c-4.831,2.676-6.577,8.763-3.9,13.593c2.678,4.832,8.766,6.578,13.594,3.901l25.274-14.003c3.18-1.762,5.153-5.111,5.153-8.747
	V290.074C512,286.438,510.026,283.089,506.847,281.327z M379,346.791l-102.303-56.682l102.366-56.716l102.303,56.681L379,346.791z
	 M251.28,162.524c1.508,0.835,3.177,1.253,4.847,1.253s3.339-0.417,4.847-1.253l108.153-59.923v113.362l-103,57.067v-43.364
	c0-5.523-4.478-10-10-10s-10,4.477-10,10v43.435l-103-57.067V102.601L251.28,162.524z M133,233.358l102.366,56.716L133,346.791
	L30.634,290.074L133,233.358z M143,364.115l103-57.068V420.48l-103,57.068V364.115z M256.127,28.912l102.366,56.716l-102.366,56.716
	L153.761,85.628L256.127,28.912z M20,307.047l103,57.068v113.433L20,420.48V307.047z M266,307.047l103,57.068v113.433L266,420.48
	V307.047z" />
    <path d="M444.33,448.329c-2.63,0-5.21,1.06-7.07,2.93c-1.86,1.85-2.93,4.43-2.93,7.06c0,2.64,1.069,5.22,2.93,7.08
	c1.86,1.86,4.44,2.92,7.07,2.92s5.21-1.06,7.069-2.92c1.86-1.86,2.931-4.44,2.931-7.08c0-2.63-1.07-5.21-2.931-7.06
	C449.54,449.389,446.96,448.329,444.33,448.329z" />
    <path d="M256.13,204.499c2.63,0,5.21-1.07,7.07-2.93c1.859-1.86,2.93-4.44,2.93-7.07s-1.07-5.21-2.93-7.07s-4.44-2.93-7.07-2.93
	s-5.21,1.07-7.07,2.93c-1.87,1.86-2.93,4.44-2.93,7.07s1.06,5.21,2.93,7.07C250.92,203.429,253.49,204.499,256.13,204.499z" />
</svg>