<?xml version="1.0" encoding="utf-8"?>
<!-- Generator: Adobe Illustrator 21.1.0, SVG Export Plug-In . SVG Version: 6.00 Build 0)  -->
<svg version="1.1" id="Слой_1" xmlns="http://www.w3.org/2000/svg" xmlns:xlink="http://www.w3.org/1999/xlink" x="0px" y="0px"
	 viewBox="0 0 1974.1 1469.5" style="enable-background:new 0 0 1974.1 1469.5;" xml:space="preserve">
<style type="text/css">
	.st0{fill:#ED1C24;}
	.st1{fill:#C1272D;}
	.st2{fill:#FF931E;}
	.st3{fill:#FFB81E;}
	.st4{fill:#F7BD89;}
	.st5{fill:#FBD5A0;}
	.st6{fill:#FFFFFF;}
	.st7{fill:#4D4D4D;}
	.st8{fill:#808080;}
</style>
<path class="st0" d="M1366.4,1231.4c-246.7,90.9-517.8,90.9-764.6,0c-22.7-8.2-40.9-35-40.9-58.2v-59.5c0-23.2,18.2-34.6,40.9-26.4
	c246.7,90.9,517.8,90.9,764.6,0c22.7-8.2,40.9,3.2,40.9,26.4v59.5C1406.8,1196.4,1388.7,1223.2,1366.4,1231.4L1366.4,1231.4z"/>
<path class="st1" d="M1366.4,1158.6c-246.8,126.4-517.7,126.4-764.6,0c-22.7-11.4-40.9-48.6-40.9-80.9v-82.3
	c0-32.3,18.2-48.2,40.9-36.4c246.8,126.4,517.7,126.4,764.6,0c22.7-11.4,40.9,4.1,40.9,36.4v82.3
	C1406.8,1110,1388.7,1147.3,1366.4,1158.6z"/>
<g transform="translate(117.76 202.938)">
	<ellipse class="st1" cx="866.3" cy="1059.3" rx="35" ry="35"/>
	<ellipse class="st2" cx="866.3" cy="1054.3" rx="30" ry="30"/>
	<ellipse class="st3" cx="875" cy="1064.8" rx="10.5" ry="10.5"/>
	<ellipse class="st2" cx="866.3" cy="1173" rx="93.6" ry="93.6"/>
	<circle class="st3" cx="866.3" cy="1173.9" r="84.1"/>
	<path class="st2" d="M890.9,1147.1c5,4.6,7.7,10.9,7.7,20s-2.7,15.5-7.7,20c-5.5,4.1-13.2,6.4-24.1,6.4h-9.6v20.4h-16.4v-73.2h25.9
		C877.7,1140.7,885.9,1142.5,890.9,1147.1L890.9,1147.1z M879.1,1175.7c1.8-2.3,2.7-5.4,2.7-9.5s-1.4-7.3-3.6-9.1
		c-2.7-1.8-6.4-2.7-11.8-2.7h-9.1v24.5h10.9C873.6,1178.9,877.3,1178,879.1,1175.7z"/>
</g>
<path class="st4" d="M1742.7,614.1c22.7,311.4-314.1,590.9-754.1,590.5c-439.5,0.4-776.8-279.1-754.1-590.5
	c22.7-312.3,361.4-570,755-570.4C1383.7,44.1,1719.6,301.8,1742.7,614.1L1742.7,614.1z"/>
<path class="st5" d="M987.3,0c-413.6,0-797.7,291.4-725,735c14.6,40.9,38.6,147.3,153.6,241.4c34.5,28.2,94.1,51.8,122.3,32.7
	c72.3-49.1-55.9-190,90.5-320h-3.2c79.5-60.4,192.3-108.6,360.9-108.6s281.4,48.2,360.9,108.6h-3.2c146.4,130,18.6,270.9,90.5,320
	c28.2,19.1,88.2-4.5,122.3-32.7c115-94.1,139.6-200.5,154.1-241.4C1783.7,290.9,1400.9,0,987.3,0L987.3,0z"/>
<path d="M1343.2,736.8c-69.6-85.4-201.4-168.2-354.6-168.2h-1.8c-153.6,0-285.4,82.7-354.6,168.2c-71.8,87.3-45.9,124.6-45.9,208.2
	c0,302.7,105.9,214.6,177.3,250.9c72.7,35.4,146.4,22.7,223.6,22.7h1.4c77.3,0,150.9,12.7,223.6-23.2
	c70.9-36.4,177.3,52.7,177.3-250C1389.1,862.3,1415,824.1,1343.2,736.8L1343.2,736.8z"/>
<g transform="translate(62.37 123.81)">
	<circle class="st4" cx="414.5" cy="478.5" r="126.8"/>
	<circle cx="425.8" cy="457.1" r="126.8"/>
	<circle class="st6" cx="458.1" cy="400.3" r="32.7"/>
</g>
<g transform="translate(165.702 123.81)">
	<circle class="st4" cx="1329.3" cy="478.5" r="126.8"/>
	<circle cx="1322" cy="457.1" r="126.8"/>
	<circle class="st6" cx="1354.3" cy="400.3" r="32.7"/>
</g>
<path class="st4" d="M720.5,113.6c0,0-429.5,74.1-446.8,587.3c-0.5,7.7-8.6,12.7-15.5,8.6l-13.6-8.2l-10.4-134.6l19.5-274.5
	L432.7,160l160.9-65L720.5,113.6L720.5,113.6z M1253.7,113.6c0,0,429.5,74.1,446.8,587.3c0.5,7.7,8.6,12.7,15.5,8.6l13.6-8.2
	l10.4-134.6l-19.5-274.5L1541.4,160l-160.9-65L1253.7,113.6L1253.7,113.6z"/>
<path class="st7" d="M978.3,1027.5V768.6h18.9v258.3c27.9,3.3,64.1,19.5,98.7,29.9c35.9,12.7,70.4,17.7,56.8,19.6
	c-47.3,1.8-99.1-15.9-162.7-15c-64.1-0.9-115.9,16.8-162.7,15c-13.6-2.3,20.9-7.3,56.8-19.6C917,1046.9,950.9,1031.8,978.3,1027.5
	L978.3,1027.5z M1106.4,681.4c15,33.2-36.8,87.3-119.1,87.3s-134.1-54.1-119.1-87.3c14.6-34.1,66.8-45,119.1-45.5
	C1039.6,636.4,1091.8,647.3,1106.4,681.4z"/>
<path d="M720.5,113.6c0,0-505.9,70-462.3,572.3c2.3,25.5-100.9-108.6-180.9-149.5C-2.7,495.4,0,363.2,0,363.2S-1.4,132.7,321.8,64.6
	C644.6-3.2,720.5,113.6,720.5,113.6z M1253.7,113.6c0,0,505.9,70,462.3,572.3c-2.3,25.5,100.9-108.6,180.9-149.5
	c80-40.9,77.3-173.2,77.3-173.2s1.4-230.4-321.8-298.6C1329.6-3.2,1253.7,113.6,1253.7,113.6L1253.7,113.6z"/>
<path class="st4" d="M987.7,475.5c-157.3,0-316.4,154.5-283.2,137.3c61.4-32.3,96.8-89.1,283.2-89.1c186.4,0,221.4,56.8,283.2,89.1
	C1304.1,630,1145,475.5,987.7,475.5L987.7,475.5z"/>
<path class="st4" d="M987.7,407.7c-119.5,0-240,117.3-215,104.1c46.8-24.5,106.8-67.7,215-67.7s168.2,43.2,215,67.7
	C1227.7,525,1107.3,407.7,987.7,407.7L987.7,407.7z M986.8,27.3c-131.8,0-265.5,75.5-237.7,66.8c51.8-15.9,118.2-43.6,237.7-43.6
	c119.5,0,185.9,27.7,237.7,43.6C1252.3,102.7,1119.1,27.3,986.8,27.3L986.8,27.3z"/>
<path class="st8" d="M1017.3,663.2c3.6,8.2-9.1,21.4-29.5,21.4c-20.5,0-33.2-13.2-29.6-21.4c3.6-8.2,16.4-10.9,29.6-11.4
	C1000.5,651.8,1013.7,654.6,1017.3,663.2z"/>
</svg>
