<?xml version="1.0" encoding="utf-8"?>
<!-- Generator: Adobe Illustrator 21.1.0, SVG Export Plug-In . SVG Version: 6.00 Build 0)  -->
<svg version="1.1" id="Слой_1" xmlns="http://www.w3.org/2000/svg" xmlns:xlink="http://www.w3.org/1999/xlink" x="0px" y="0px"
	 viewBox="0 0 36.9 19.3" style="enable-background:new 0 0 36.9 19.3;" xml:space="preserve">
<style type="text/css">
	.st0{fill:#fff;}
</style>
<g>
	<path class="st0" d="M0.1,7.4c0-0.1,0-0.2,0.1-0.2S0.3,7,0.4,7c0.1,0,0.2-0.1,0.4-0.2s0.4-0.2,0.6-0.3S1.7,6.2,2,6s0.5-0.3,0.7-0.4
		S3,5.4,3.2,5.3S3.5,5.1,3.6,5C3.7,5,3.7,4.9,3.8,4.9S3.9,4.8,4,4.7s0.1,0,0.2-0.1s0.2,0,0.3,0c0,0.2-0.1,0.4-0.2,0.5S4.2,5.4,4,5.5
		C3.9,5.5,3.8,5.6,3.5,5.8S3,6.1,2.7,6.3S2.2,6.7,2,6.8S1.5,7.1,1.4,7.1C1.3,7.2,1.3,7.3,1.3,7.4v0c0,0,0,0,0,0l2.9,0.5c0,0,0,0,0,0
		c0,0,0,0,0,0s0,0,0,0c0,0.2-0.1,0.4-0.3,0.5c0,0-0.1,0-0.1,0s-0.2,0-0.2,0s-0.2,0-0.2,0s-0.1,0-0.2,0c-0.1,0-0.2,0-0.4,0
		S2.3,8.5,2,8.4S1.6,8.4,1.3,8.3S0.9,8.2,0.7,8.1S0.4,7.9,0.2,7.8S0.1,7.5,0.1,7.4z"/>
	<path class="st0" d="M5.1,9.6c0-0.1,0-0.2,0-0.3s0.1-0.2,0.3-0.2C5.5,9,5.6,8.8,5.7,8.6S6,8.1,6.1,7.8s0.3-0.6,0.5-0.9S7,6.3,7.2,6
		s0.3-0.5,0.5-0.8S7.9,4.8,8,4.7c0.1-0.1,0.2-0.3,0.3-0.5s0.3-0.4,0.5-0.6s0.3-0.4,0.5-0.6s0.4-0.4,0.5-0.5c0,0,0,0,0.1,0
		s0.1,0,0.1,0c0,0.1-0.1,0.3-0.2,0.5S9.6,3.4,9.4,3.7S9.1,4.2,8.9,4.5S8.5,5.1,8.3,5.4S7.9,6,7.7,6.2S7.5,6.7,7.4,6.8
		C7.3,7,7.2,7.2,7,7.5S6.7,8.1,6.6,8.4S6.2,8.9,6.1,9.2S5.7,9.7,5.5,9.9c0,0-0.1,0.1-0.2,0.1S5.3,10,5.3,10c0,0-0.1,0-0.1-0.1
		s0-0.1-0.1-0.1S5.1,9.8,5.1,9.6C5.1,9.7,5.1,9.7,5.1,9.6z"/>
	<path class="st0" d="M10.2,9c0-0.1,0-0.2,0.1-0.3s0.1-0.2,0.2-0.3c0,0,0,0,0.1,0s0.1,0,0.1,0c0,0,0.1,0,0.1,0V9
		c0,0,0.1-0.1,0.2-0.3s0.2-0.3,0.3-0.4s0.2-0.3,0.3-0.4s0.2-0.2,0.2-0.3l2.7-5.3c0.1-0.1,0.2-0.2,0.2-0.2s0.1,0,0.2,0
		s0.1,0.1,0.2,0.3l-1.7,3.4v0.1c0.2,0,0.4,0.1,0.6,0.1s0.3,0.1,0.5,0.3s0.2,0.2,0.3,0.4S15,7.1,15,7.3c0,0.4-0.1,0.7-0.3,1.1
		S14.2,9,13.9,9.2s-0.7,0.4-1,0.6S12.1,10,11.8,10c-0.2,0-0.3,0-0.5-0.1s-0.3-0.1-0.5-0.2s-0.3-0.2-0.4-0.3S10.2,9.1,10.2,9z
		 M13.6,6.7c-0.1,0-0.2,0.1-0.4,0.2S13,7.1,12.8,7.2s-0.2,0.3-0.4,0.5s-0.2,0.4-0.3,0.6S12,8.7,12,8.9s-0.1,0.3-0.1,0.4
		c0.2,0,0.5-0.1,0.7-0.2s0.5-0.2,0.8-0.4s0.4-0.4,0.6-0.6s0.2-0.5,0.2-0.7c0-0.2,0-0.4-0.1-0.6S13.8,6.7,13.6,6.7z"/>
	<path class="st0" d="M15.6,9c0,0,0-0.1,0-0.2s0-0.2,0-0.2c0.3-0.6,0.6-1.1,1-1.6s0.8-0.9,1.3-1.3c0,0,0,0,0.1,0s0.1,0,0.1,0
		c0.2,0,0.4,0,0.5,0.1s0.2,0.2,0.3,0.4s0.1,0.3,0.2,0.5s0,0.3,0,0.5c0,0.3-0.1,0.6-0.2,1s-0.3,0.6-0.6,0.9s-0.5,0.5-0.8,0.7
		S16.9,10,16.6,10S16,10,15.9,9.8S15.6,9.4,15.6,9z M16.5,8.9c0,0.1,0,0.1,0.1,0.2s0.1,0,0.2,0c0.2,0,0.4-0.1,0.6-0.2
		s0.3-0.2,0.5-0.4s0.3-0.3,0.3-0.5s0.1-0.4,0.1-0.6c0-0.1,0-0.2,0-0.3s0-0.2-0.1-0.3s-0.1-0.1-0.2-0.2s-0.2-0.1-0.3,0
		c-0.1,0-0.2,0.1-0.4,0.3S17.1,7.4,17,7.6s-0.2,0.5-0.3,0.7S16.5,8.8,16.5,8.9z"/>
	<path class="st0" d="M19.6,8.9c0-0.4,0.1-0.8,0.3-1.1s0.5-0.7,0.8-1s0.7-0.5,1.1-0.7s0.8-0.3,1.2-0.3c0.1,0,0.3,0,0.4,0.1
		s0.3,0.1,0.4,0.1H24c0-0.1,0.1-0.2,0.2-0.5s0.2-0.4,0.4-0.7s0.3-0.5,0.4-0.7s0.2-0.4,0.3-0.5c0.1-0.1,0.2-0.3,0.4-0.6
		s0.3-0.4,0.4-0.7s0.3-0.4,0.4-0.5s0.2-0.2,0.2-0.2L27,2.1c0,0,0,0.1-0.1,0.2s-0.1,0.3-0.2,0.5s-0.2,0.4-0.3,0.7S26.2,4,26,4.2
		s-0.2,0.5-0.4,0.7s-0.2,0.4-0.3,0.6c-0.2,0.4-0.5,0.7-0.7,1.1s-0.4,0.7-0.6,1.1s-0.2,0.6-0.2,0.8S24,8.9,24.2,9
		c0.5-0.1,0.8-0.1,1.1-0.1S25.7,9,25.7,9s0,0.1,0,0.2s-0.2,0.2-0.4,0.2S25,9.6,24.8,9.6s-0.4,0-0.7-0.1s-0.4-0.2-0.6-0.4
		s-0.3-0.5-0.4-0.8l-1.8,1.5c-0.1,0-0.2,0.1-0.3,0.1s-0.2,0-0.3,0s-0.2,0-0.2,0h-0.1c-0.2,0-0.3,0-0.4-0.1s-0.2-0.2-0.3-0.3
		s-0.1-0.2-0.1-0.4S19.6,9,19.6,8.9z M20.3,8.7c0,0,0,0.1,0,0.2s0,0.1,0,0.2s0,0.1,0.1,0.1s0.1,0.1,0.2,0.1c0.1,0,0.2,0,0.4-0.1
		s0.3-0.2,0.4-0.3s0.3-0.2,0.4-0.3S22,8.4,22,8.4c0.1-0.1,0.2-0.2,0.3-0.3s0.3-0.3,0.5-0.5s0.3-0.3,0.5-0.5s0.2-0.2,0.3-0.3v0
		c0,0,0,0,0,0s0,0,0,0c0-0.1,0-0.1-0.1-0.2s-0.1-0.1-0.2-0.1s-0.1,0-0.2,0s-0.1,0-0.2,0c-0.3,0-0.6,0.1-0.9,0.2S21.5,7,21.3,7.2
		s-0.5,0.4-0.7,0.7S20.3,8.4,20.3,8.7z"/>
	<path class="st0" d="M24.9,13.6c0.3-0.4,0.5-0.8,0.9-1.1s0.7-0.6,1-0.9s0.7-0.6,1-0.8s0.7-0.6,1-0.9s0.5-0.6,0.8-1s0.4-0.8,0.4-1.3
		c0,0,0,0,0-0.1s0-0.1,0-0.1c-0.2,0.2-0.4,0.4-0.7,0.7s-0.5,0.5-0.8,0.8s-0.6,0.4-0.9,0.6s-0.6,0.2-0.9,0.2c-0.1,0-0.2,0-0.3,0
		s-0.2,0-0.4-0.1s-0.2-0.1-0.3-0.2s-0.1-0.2-0.1-0.3c0-0.1,0-0.3,0.1-0.5s0.1-0.4,0.2-0.7s0.2-0.5,0.3-0.8s0.2-0.5,0.4-0.7
		s0.3-0.4,0.4-0.5s0.2-0.2,0.4-0.2s0.2,0,0.3,0.1s0.1,0.1,0.1,0.2c0,0.2-0.1,0.4-0.2,0.6S27.2,7.1,27,7.3S26.7,7.7,26.6,8
		s-0.2,0.6-0.2,0.9c0.5,0,1-0.1,1.4-0.3s0.8-0.5,1.1-0.8s0.6-0.7,0.9-1s0.5-0.7,0.7-1s0.4-0.6,0.5-0.8s0.3-0.3,0.4-0.3
		c0.1,0,0.2,0,0.3,0.1s0,0.2,0,0.3c-0.1,0.2-0.2,0.5-0.3,0.8s-0.3,0.7-0.4,1s-0.2,0.7-0.4,1.1s-0.2,0.7-0.2,1c0,0,0,0,0,0s0,0,0,0
		c0.1,0,0.3-0.1,0.4-0.2s0.2-0.2,0.4-0.4s0.2-0.2,0.4-0.3s0.3-0.1,0.4-0.1c0,0,0,0.1,0.1,0.2s0,0.2,0,0.4c-0.1,0.1-0.2,0.1-0.4,0.3
		S31.3,9,31.1,9.2s-0.4,0.3-0.6,0.4s-0.3,0.2-0.4,0.3c-0.1,0.1-0.2,0.3-0.3,0.5s-0.2,0.4-0.4,0.7s-0.2,0.5-0.3,0.8s-0.2,0.6-0.3,0.8
		s-0.2,0.5-0.3,0.8s-0.2,0.4-0.3,0.6c0,0.1-0.1,0.2-0.2,0.4s-0.3,0.4-0.4,0.6s-0.3,0.4-0.4,0.6s-0.2,0.3-0.3,0.4
		c0,0-0.1,0.1-0.3,0.3s-0.3,0.3-0.5,0.5s-0.4,0.3-0.5,0.5s-0.3,0.3-0.4,0.4c-0.1,0.1-0.2,0.1-0.4,0.2S24.4,18,24.2,18
		s-0.3,0.1-0.5,0.1s-0.3,0-0.4-0.1s-0.2-0.2-0.2-0.4s0-0.5,0.1-0.8s0.3-0.8,0.5-1.3S24.4,14.3,24.9,13.6z M28.6,11.1
		C28.6,11.1,28.5,11.1,28.6,11.1c-0.1,0-0.1,0-0.2,0c0,0-0.1,0-0.1,0.1s-0.1,0.1-0.2,0.1S28,11.4,28,11.4s-0.1,0.1-0.1,0.1
		c-0.2,0.2-0.5,0.4-0.8,0.7s-0.6,0.6-0.9,0.9s-0.6,0.7-0.9,1.1s-0.5,0.8-0.8,1.1s-0.4,0.7-0.6,1s-0.2,0.5-0.2,0.7s0.1,0.3,0.2,0.3
		s0.4,0,0.8-0.2c0.1-0.1,0.2-0.2,0.3-0.3s0.3-0.3,0.4-0.4s0.3-0.3,0.4-0.4s0.2-0.2,0.2-0.2c0-0.1,0.1-0.1,0.2-0.3s0.2-0.3,0.3-0.4
		s0.2-0.3,0.3-0.5s0.2-0.3,0.3-0.5s0.2-0.3,0.3-0.4s0.1-0.2,0.2-0.3c0.1-0.1,0.2-0.3,0.3-0.5s0.2-0.5,0.3-0.7s0.2-0.5,0.2-0.7
		S28.6,11.2,28.6,11.1z"/>
	<path class="st0" d="M32.1,9c0.1-0.1,0.2-0.3,0.3-0.4s0.3-0.3,0.5-0.4s0.4-0.2,0.7-0.3s0.5-0.2,0.7-0.3s0.4-0.1,0.7-0.2
		s0.4-0.1,0.5-0.1c0,0,0,0,0,0s0,0,0,0c0-0.1-0.1-0.2-0.2-0.2S35.1,6.9,35,6.8c-0.1,0-0.3-0.1-0.5-0.2s-0.5-0.2-0.8-0.3
		S33,6.2,32.8,6.1S32.4,6,32.3,5.9c-0.1-0.2-0.2-0.3-0.2-0.4s0.1-0.2,0.2-0.3s0.2-0.1,0.4-0.1s0.3,0,0.4,0s0.3,0.1,0.4,0.2
		s0.2,0.2,0.2,0.3l2.7,1.1c0.3,0.1,0.5,0.3,0.5,0.6c0,0.1,0,0.2-0.1,0.3s-0.2,0.1-0.3,0.1s-0.2,0-0.4,0s-0.2,0-0.3,0l-3.2,1.4
		c0,0,0,0,0,0s0,0,0,0c-0.1,0-0.1,0-0.2,0S32.2,9,32.1,9z"/>
</g>
</svg>
