<?xml version="1.0" encoding="utf-8"?>
<!-- Generator: Adobe Illustrator 21.1.0, SVG Export Plug-In . SVG Version: 6.00 Build 0)  -->
<svg version="1.1" id="Слой_1" xmlns="http://www.w3.org/2000/svg" xmlns:xlink="http://www.w3.org/1999/xlink" x="0px" y="0px"
	 viewBox="0 0 31.6 19.3" style="enable-background:new 0 0 31.6 19.3;" xml:space="preserve">
<style type="text/css">
	.st0{fill:#283136;}
</style>
<g>
	<path class="st0" d="M0.1,7.4c0-0.1,0-0.2,0.1-0.2S0.3,7,0.4,7c0.1,0,0.2-0.1,0.4-0.2s0.4-0.2,0.6-0.3S1.7,6.2,2,6s0.5-0.3,0.7-0.4
		S3,5.4,3.2,5.3S3.5,5.1,3.6,5C3.7,5,3.7,4.9,3.8,4.9S3.9,4.8,4,4.7s0.1,0,0.2-0.1s0.2,0,0.3,0c0,0.2-0.1,0.4-0.2,0.5S4.2,5.4,4,5.5
		C3.9,5.5,3.8,5.6,3.5,5.8S3,6.1,2.7,6.3S2.2,6.7,2,6.8S1.5,7.1,1.4,7.1C1.3,7.2,1.3,7.3,1.3,7.4v0c0,0,0,0,0,0l2.9,0.5c0,0,0,0,0,0
		c0,0,0,0,0,0s0,0,0,0c0,0.2-0.1,0.4-0.3,0.5c0,0-0.1,0-0.1,0s-0.2,0-0.2,0s-0.2,0-0.2,0s-0.1,0-0.2,0c-0.1,0-0.2,0-0.4,0
		S2.3,8.5,2,8.4S1.6,8.4,1.3,8.3S0.9,8.2,0.7,8.1S0.4,7.9,0.2,7.8S0.1,7.5,0.1,7.4z"/>
	<path class="st0" d="M4.9,9c0-0.1,0-0.2,0.1-0.3s0.1-0.2,0.2-0.3c0,0,0,0,0.1,0s0.1,0,0.1,0c0,0,0.1,0,0.1,0V9c0,0,0.1-0.1,0.2-0.3
		S5.9,8.4,6,8.3S6.2,8,6.3,7.9s0.2-0.2,0.2-0.3l2.7-5.3c0.1-0.1,0.2-0.2,0.2-0.2s0.1,0,0.2,0s0.1,0.1,0.2,0.3L8.1,5.8v0.1
		C8.4,6,8.6,6,8.7,6.1s0.3,0.1,0.5,0.3s0.2,0.2,0.3,0.4s0.1,0.4,0.1,0.6c0,0.4-0.1,0.7-0.3,1.1S8.9,9,8.6,9.2s-0.7,0.4-1,0.6
		S6.8,10,6.5,10C6.3,10,6.1,10,6,10S5.6,9.9,5.5,9.8S5.2,9.6,5.1,9.4S4.9,9.1,4.9,9z M8.3,6.7C8.2,6.7,8,6.7,7.9,6.8
		S7.6,7.1,7.5,7.2S7.3,7.6,7.2,7.8S6.9,8.1,6.8,8.3S6.7,8.7,6.6,8.9S6.6,9.2,6.6,9.3c0.2,0,0.5-0.1,0.7-0.2s0.5-0.2,0.8-0.4
		s0.4-0.4,0.6-0.6s0.2-0.5,0.2-0.7c0-0.2,0-0.4-0.1-0.6S8.5,6.7,8.3,6.7z"/>
	<path class="st0" d="M10.3,9c0,0,0-0.1,0-0.2s0-0.2,0-0.2c0.3-0.6,0.6-1.1,1-1.6s0.8-0.9,1.3-1.3c0,0,0,0,0.1,0s0.1,0,0.1,0
		c0.2,0,0.4,0,0.5,0.1s0.2,0.2,0.3,0.4s0.1,0.3,0.2,0.5s0,0.3,0,0.5c0,0.3-0.1,0.6-0.2,1S13.3,8.8,13,9.1s-0.5,0.5-0.8,0.7
		S11.6,10,11.3,10s-0.6-0.1-0.7-0.3S10.3,9.4,10.3,9z M11.2,8.9c0,0.1,0,0.1,0.1,0.2s0.1,0,0.2,0c0.2,0,0.4-0.1,0.6-0.2
		s0.3-0.2,0.5-0.4s0.3-0.3,0.3-0.5s0.1-0.4,0.1-0.6c0-0.1,0-0.2,0-0.3S13,7,13,6.9s-0.1-0.1-0.2-0.2s-0.2-0.1-0.3,0
		c-0.1,0-0.2,0.1-0.4,0.3s-0.3,0.4-0.4,0.6s-0.2,0.5-0.3,0.7S11.2,8.8,11.2,8.9z"/>
	<path class="st0" d="M14.3,8.9c0-0.4,0.1-0.8,0.3-1.1s0.5-0.7,0.8-1s0.7-0.5,1.1-0.7s0.8-0.3,1.2-0.3c0.1,0,0.3,0,0.4,0.1
		s0.3,0.1,0.4,0.1h0.1c0-0.1,0.1-0.2,0.2-0.5s0.2-0.4,0.4-0.7s0.3-0.5,0.4-0.7s0.2-0.4,0.3-0.5c0.1-0.1,0.2-0.3,0.4-0.6
		s0.3-0.4,0.4-0.7S21,2,21.1,1.9s0.2-0.2,0.2-0.2l0.5,0.5c0,0,0,0.1-0.1,0.2s-0.1,0.3-0.2,0.5s-0.2,0.4-0.3,0.7S20.8,4,20.7,4.2
		s-0.2,0.5-0.4,0.7s-0.2,0.4-0.3,0.6c-0.2,0.4-0.5,0.7-0.7,1.1s-0.4,0.7-0.6,1.1s-0.2,0.6-0.2,0.8s0.1,0.4,0.4,0.5
		c0.5-0.1,0.8-0.1,1.1-0.1S20.3,9,20.4,9s0,0.1,0,0.2S20.2,9.4,20,9.5s-0.4,0.1-0.6,0.1s-0.4,0-0.7-0.1s-0.4-0.2-0.6-0.4
		s-0.3-0.5-0.4-0.8l-1.8,1.5c-0.1,0-0.2,0.1-0.3,0.1s-0.2,0-0.3,0s-0.2,0-0.2,0h-0.1c-0.2,0-0.3,0-0.4-0.1s-0.2-0.2-0.3-0.3
		s-0.1-0.2-0.1-0.4S14.3,9,14.3,8.9z M15,8.7c0,0,0,0.1,0,0.2s0,0.1,0,0.2s0,0.1,0.1,0.1s0.1,0.1,0.2,0.1c0.1,0,0.2,0,0.4-0.1
		s0.3-0.2,0.4-0.3s0.3-0.2,0.4-0.3s0.2-0.2,0.3-0.2c0.1-0.1,0.2-0.2,0.3-0.3s0.3-0.3,0.5-0.5s0.3-0.3,0.5-0.5s0.2-0.2,0.3-0.3v0
		c0,0,0,0,0,0s0,0,0,0c0-0.1,0-0.1-0.1-0.2S18.1,6.5,18,6.5s-0.1,0-0.2,0s-0.1,0-0.2,0c-0.3,0-0.6,0.1-0.9,0.2S16.2,7,15.9,7.2
		s-0.5,0.4-0.7,0.7S15,8.4,15,8.7z"/>
	<path class="st0" d="M19.6,13.6c0.3-0.4,0.5-0.8,0.9-1.1s0.7-0.6,1-0.9s0.7-0.6,1-0.8s0.7-0.6,1-0.9s0.5-0.6,0.8-1s0.4-0.8,0.4-1.3
		c0,0,0,0,0-0.1s0-0.1,0-0.1c-0.2,0.2-0.4,0.4-0.7,0.7s-0.5,0.5-0.8,0.8s-0.6,0.4-0.9,0.6s-0.6,0.2-0.9,0.2c-0.1,0-0.2,0-0.3,0
		s-0.2,0-0.4-0.1s-0.2-0.1-0.3-0.2s-0.1-0.2-0.1-0.3c0-0.1,0-0.3,0.1-0.5s0.1-0.4,0.2-0.7s0.2-0.5,0.3-0.8s0.2-0.5,0.4-0.7
		s0.3-0.4,0.4-0.5s0.2-0.2,0.4-0.2s0.2,0,0.3,0.1s0.1,0.1,0.1,0.2c0,0.2-0.1,0.4-0.2,0.6s-0.3,0.4-0.5,0.6S21.4,7.7,21.2,8
		S21,8.6,21,8.9c0.5,0,1-0.1,1.4-0.3s0.8-0.5,1.1-0.8s0.6-0.7,0.9-1s0.5-0.7,0.7-1s0.4-0.6,0.5-0.8s0.3-0.3,0.4-0.3
		c0.1,0,0.2,0,0.3,0.1s0,0.2,0,0.3c-0.1,0.2-0.2,0.5-0.3,0.8s-0.3,0.7-0.4,1s-0.2,0.7-0.4,1.1s-0.2,0.7-0.2,1c0,0,0,0,0,0s0,0,0,0
		c0.1,0,0.3-0.1,0.4-0.2s0.2-0.2,0.4-0.4s0.2-0.2,0.4-0.3s0.3-0.1,0.4-0.1c0,0,0,0.1,0.1,0.2s0,0.2,0,0.4c-0.1,0.1-0.2,0.1-0.4,0.3
		S25.9,9,25.7,9.2s-0.4,0.3-0.6,0.4s-0.3,0.2-0.4,0.3c-0.1,0.1-0.2,0.3-0.3,0.5s-0.2,0.4-0.4,0.7s-0.2,0.5-0.3,0.8s-0.2,0.6-0.3,0.8
		s-0.2,0.5-0.3,0.8s-0.2,0.4-0.3,0.6c0,0.1-0.1,0.2-0.2,0.4s-0.3,0.4-0.4,0.6s-0.3,0.4-0.4,0.6s-0.2,0.3-0.3,0.4
		c0,0-0.1,0.1-0.3,0.3s-0.3,0.3-0.5,0.5s-0.4,0.3-0.5,0.5s-0.3,0.3-0.4,0.4c-0.1,0.1-0.2,0.1-0.4,0.2S19.1,18,18.9,18
		s-0.3,0.1-0.5,0.1s-0.3,0-0.4-0.1s-0.2-0.2-0.2-0.4s0-0.5,0.1-0.8s0.3-0.8,0.5-1.3S19.1,14.3,19.6,13.6z M23.3,11.1
		C23.2,11.1,23.2,11.1,23.3,11.1c-0.1,0-0.1,0-0.2,0c0,0-0.1,0-0.1,0.1s-0.1,0.1-0.2,0.1s-0.1,0.1-0.2,0.1s-0.1,0.1-0.1,0.1
		c-0.2,0.2-0.5,0.4-0.8,0.7s-0.6,0.6-0.9,0.9s-0.6,0.7-0.9,1.1s-0.5,0.8-0.8,1.1s-0.4,0.7-0.6,1s-0.2,0.5-0.2,0.7s0.1,0.3,0.2,0.3
		s0.4,0,0.8-0.2c0.1-0.1,0.2-0.2,0.3-0.3s0.3-0.3,0.4-0.4s0.3-0.3,0.4-0.4s0.2-0.2,0.2-0.2c0-0.1,0.1-0.1,0.2-0.3s0.2-0.3,0.3-0.4
		s0.2-0.3,0.3-0.5s0.2-0.3,0.3-0.5s0.2-0.3,0.3-0.4s0.1-0.2,0.2-0.3c0.1-0.1,0.2-0.3,0.3-0.5s0.2-0.5,0.3-0.7s0.2-0.5,0.2-0.7
		S23.3,11.2,23.3,11.1z"/>
	<path class="st0" d="M26.8,9c0.1-0.1,0.2-0.3,0.3-0.4s0.3-0.3,0.5-0.4s0.4-0.2,0.7-0.3s0.5-0.2,0.7-0.3s0.4-0.1,0.7-0.2
		s0.4-0.1,0.5-0.1c0,0,0,0,0,0s0,0,0,0c0-0.1-0.1-0.2-0.2-0.2s-0.2-0.1-0.3-0.1c-0.1,0-0.3-0.1-0.5-0.2s-0.5-0.2-0.8-0.3
		s-0.6-0.2-0.8-0.3S27,6,26.9,5.9c-0.1-0.2-0.2-0.3-0.2-0.4s0.1-0.2,0.2-0.3s0.2-0.1,0.4-0.1s0.3,0,0.4,0s0.3,0.1,0.4,0.2
		s0.2,0.2,0.2,0.3L31,6.7c0.3,0.1,0.5,0.3,0.5,0.6c0,0.1,0,0.2-0.1,0.3s-0.2,0.1-0.3,0.1s-0.2,0-0.4,0s-0.2,0-0.3,0l-3.2,1.4
		c0,0,0,0,0,0s0,0,0,0c-0.1,0-0.1,0-0.2,0S26.8,9,26.8,9z"/>
</g>
</svg>
