<?xml version="1.0" encoding="utf-8"?>
<!-- Generator: Adobe Illustrator 21.1.0, SVG Export Plug-In . SVG Version: 6.00 Build 0)  -->
<svg version="1.1" id="Слой_1" xmlns="http://www.w3.org/2000/svg" xmlns:xlink="http://www.w3.org/1999/xlink" x="0px" y="0px"
	 viewBox="0 0 35 10.1" style="enable-background:new 0 0 35 10.1;" xml:space="preserve">
<style type="text/css">
	.st0{fill:#fff;}
</style>
<g>
	<path class="st0" d="M0.1,6.6c0-0.1,0-0.2,0.1-0.2s0.1-0.1,0.2-0.2c0.1,0,0.2-0.1,0.4-0.2s0.4-0.2,0.6-0.3S1.7,5.4,2,5.2
		S2.4,5,2.6,4.8S3,4.6,3.2,4.5s0.3-0.2,0.4-0.2c0.1-0.1,0.2-0.1,0.2-0.2S3.9,4,4,4s0.1,0,0.2-0.1s0.2,0,0.3,0c0,0.2-0.1,0.4-0.2,0.5
		S4.2,4.6,4,4.7C3.9,4.8,3.8,4.9,3.5,5S3,5.4,2.7,5.5S2.2,5.9,2,6.1S1.5,6.3,1.4,6.4C1.3,6.4,1.3,6.5,1.3,6.6v0c0,0,0,0,0,0l2.9,0.5
		c0,0,0,0,0,0c0,0,0,0,0,0s0,0,0,0c0,0.2-0.1,0.4-0.3,0.5c0,0-0.1,0-0.1,0s-0.2,0-0.2,0s-0.2,0-0.2,0s-0.1,0-0.2,0
		c-0.1,0-0.2,0-0.4,0S2.3,7.7,2,7.7S1.6,7.6,1.3,7.5S0.9,7.4,0.7,7.3S0.4,7.1,0.2,7S0.1,6.8,0.1,6.6z"/>
	<path class="st0" d="M5.1,8.9c0-0.1,0-0.2,0-0.3s0.1-0.2,0.3-0.2c0.1-0.1,0.2-0.3,0.3-0.5S6,7.4,6.1,7.1s0.3-0.6,0.5-0.9
		S7,5.5,7.2,5.2s0.3-0.5,0.5-0.8S7.9,4.1,8,3.9c0.1-0.1,0.2-0.3,0.3-0.5S8.6,3,8.8,2.8s0.3-0.4,0.5-0.6s0.4-0.4,0.5-0.5
		c0,0,0,0,0.1,0s0.1,0,0.1,0c0,0.1-0.1,0.3-0.2,0.5S9.6,2.6,9.4,2.9S9.1,3.5,8.9,3.8S8.5,4.4,8.3,4.7S7.9,5.2,7.7,5.5
		S7.5,5.9,7.4,6.1C7.3,6.2,7.2,6.5,7,6.7S6.7,7.3,6.6,7.6S6.2,8.2,6.1,8.5S5.7,9,5.5,9.1c0,0-0.1,0.1-0.2,0.1S5.3,9.3,5.3,9.3
		c0,0-0.1,0-0.1-0.1s0-0.1-0.1-0.1S5.1,9,5.1,8.9C5.1,8.9,5.1,8.9,5.1,8.9z"/>
	<path class="st0" d="M14.3,9.3c-0.2,0-0.4,0-0.5-0.1S13.5,9,13.4,8.8s-0.1-0.3-0.2-0.5s0-0.4,0.1-0.5c0.3-0.4,0.6-0.8,0.7-1.1
		s0.2-0.4,0.1-0.6S14.1,6,13.9,6s-0.4,0.1-0.6,0.2s-0.5,0.3-0.7,0.5s-0.5,0.4-0.7,0.6s-0.4,0.5-0.6,0.7S11,8.6,11,8.8
		c-0.1,0-0.1,0.1-0.2,0.1s-0.1,0-0.2,0c-0.1,0-0.2,0-0.2-0.1s0-0.2,0-0.2c0-0.2,0.1-0.4,0.2-0.6s0.3-0.4,0.4-0.6s0.3-0.4,0.5-0.5
		s0.3-0.3,0.3-0.4c0.2-0.3,0.4-0.7,0.6-1s0.4-0.8,0.6-1.1s0.4-0.8,0.6-1.1s0.4-0.7,0.7-1.1c0-0.1,0.1-0.1,0.1-0.1s0.1,0,0.1,0
		c0.1,0,0.1,0,0.1,0s0.1,0.1,0.1,0.1c0,0,0,0.1,0,0.2s0,0.1,0,0.2s0,0.2,0,0.2s0,0.1,0,0.1c0,0.1-0.1,0.3-0.2,0.5S14,3.9,13.9,4.1
		s-0.3,0.5-0.4,0.8s-0.2,0.4-0.3,0.6c0.1-0.1,0.2-0.1,0.3-0.2s0.2-0.1,0.3-0.1s0.2,0,0.3,0s0.2,0,0.3,0c0.3,0.1,0.5,0.2,0.6,0.3
		s0.1,0.3,0.1,0.5S15,6.3,14.8,6.6S14.6,7,14.5,7.2s-0.2,0.4-0.3,0.6S14,8.3,14,8.4c0,0.1,0,0.1,0,0.2s0.1,0.1,0.1,0.1s0.1,0,0.2,0
		s0.1,0,0.2,0c0.2,0,0.3,0,0.5-0.1s0.3-0.1,0.5-0.2s0.3-0.1,0.5-0.2s0.3-0.1,0.5-0.1c0,0.1-0.1,0.3-0.2,0.4S15.8,8.9,15.5,9
		s-0.4,0.2-0.7,0.2S14.5,9.3,14.3,9.3z"/>
	<path class="st0" d="M15.8,8.1c0-0.2,0-0.5,0.1-0.7s0.2-0.5,0.3-0.7s0.2-0.4,0.4-0.7s0.2-0.4,0.3-0.6c-0.1,0.1-0.3,0.1-0.4,0.1
		s-0.2,0-0.4,0c0,0-0.1,0-0.1,0s-0.1,0-0.2,0c0-0.2,0.1-0.3,0.3-0.5s0.3-0.3,0.4-0.4s0.3-0.2,0.5-0.2s0.3-0.1,0.5-0.2
		C17.7,4,17.9,3.7,18,3.3s0.3-0.7,0.5-1.1s0.3-0.7,0.5-1s0.5-0.6,0.8-0.9l0.1,0.4l-1.5,3.4c0.1,0,0.2,0,0.3-0.1s0.3,0,0.4-0.1
		s0.3,0,0.4-0.1s0.2,0,0.3-0.1c0,0,0,0,0.1,0s0.1,0,0.1,0c0.1,0,0.2,0,0.3,0.1s0.1,0.1,0.2,0.3c-0.5,0.2-1,0.3-1.4,0.5
		s-0.8,0.4-1.1,0.7S17.3,6,17.1,6.4s-0.3,1-0.4,1.6c0,0.1,0,0.3,0,0.4s0.1,0.2,0.3,0.2c0.2,0,0.3,0,0.5-0.1s0.3-0.1,0.5-0.2
		s0.3-0.2,0.5-0.2S18.7,8,18.9,8c0,0.2-0.1,0.4-0.2,0.5s-0.4,0.3-0.6,0.4s-0.5,0.2-0.7,0.3s-0.4,0.1-0.6,0.1s-0.3,0-0.4-0.1
		S16.1,9,16,8.9s-0.1-0.2-0.2-0.4S15.8,8.3,15.8,8.1z"/>
	<path class="st0" d="M24.6,9.3c-0.1,0-0.3,0-0.4-0.1S24,9.1,23.9,9s-0.1-0.2-0.2-0.3s0-0.3,0-0.4c0-0.3,0-0.5,0.1-0.7
		s0.2-0.4,0.3-0.6s0.2-0.4,0.3-0.6s0.1-0.4,0.1-0.6c-0.2,0-0.4,0.1-0.6,0.2s-0.4,0.3-0.6,0.4s-0.4,0.4-0.6,0.6s-0.4,0.4-0.5,0.7
		S22,8,21.9,8.2s-0.2,0.4-0.3,0.5c0,0-0.1,0-0.1,0s-0.1,0-0.1,0c-0.1,0.1-0.2,0.1-0.2,0s0-0.2,0-0.3s0.1-0.3,0.1-0.5
		s0.1-0.3,0.2-0.5s0.1-0.3,0.1-0.4s0-0.2,0-0.2c0,0,0.1-0.1,0.1-0.2s0.1-0.1,0.1-0.2s0.1-0.2,0.1-0.2s0-0.1,0-0.2
		c0-0.1,0-0.1-0.1-0.1s-0.1,0-0.1,0c-0.1-0.1-0.3,0-0.5,0.1s-0.3,0.4-0.5,0.7s-0.4,0.7-0.6,1.1S19.7,8.6,19.4,9
		c-0.2,0-0.3,0-0.4-0.1s-0.1-0.2-0.1-0.4C19,8.5,19,8.3,19.2,8.1s0.3-0.5,0.4-0.8s0.3-0.6,0.5-0.9s0.3-0.5,0.5-0.8s0.3-0.3,0.4-0.4
		s0.2,0,0.3,0.1c0.1-0.1,0.3-0.2,0.4-0.2S22.1,5,22.3,5c0.1,0,0.2,0,0.3,0.1s0.1,0.1,0.2,0.2s0.1,0.2,0.1,0.3s0,0.2,0,0.3
		c0.1-0.1,0.2-0.2,0.4-0.3s0.4-0.3,0.6-0.4s0.5-0.3,0.7-0.4s0.4-0.2,0.5-0.2c0.1,0,0.2,0,0.3,0.1s0.1,0.2,0.1,0.3
		c-0.3,0.7-0.5,1.2-0.7,1.7s-0.3,0.7-0.3,1s-0.1,0.4,0,0.5s0.1,0.2,0.3,0.2c0.2,0,0.4,0,0.6-0.1s0.4-0.1,0.6-0.2s0.4-0.2,0.6-0.2
		s0.4-0.1,0.6-0.1c0,0.1,0,0.2-0.1,0.2S27.1,8.2,27,8.2c-0.1,0-0.2,0.1-0.3,0.2s-0.3,0.2-0.5,0.3s-0.4,0.2-0.5,0.3s-0.3,0.1-0.4,0.2
		c-0.2,0.1-0.3,0.1-0.4,0.1S24.7,9.3,24.6,9.3z"/>
	<path class="st0" d="M26.9,8.2c0-0.1,0-0.1,0-0.3s0-0.2,0-0.3s0-0.2,0-0.3s0-0.1,0-0.2l2.1-4.3c0-0.1,0.1-0.2,0.2-0.3
		s0.2-0.2,0.3-0.4S29.9,2,30,1.9s0.2-0.2,0.3-0.3c0.1,0,0.1,0,0.1,0.1s0,0.1,0,0.1s0,0.1,0,0.1s0,0.1,0,0.1c0,0,0,0.1,0,0.2
		s0,0.1,0,0.1c-0.1,0.2-0.2,0.5-0.4,0.8s-0.3,0.6-0.6,0.9s-0.4,0.7-0.6,1s-0.4,0.7-0.6,1.1s-0.3,0.7-0.4,1s-0.2,0.6-0.2,0.9
		c0,0.1,0,0.3,0.1,0.3s0.2,0.2,0.3,0.2s0.2,0.1,0.3,0.2s0.1,0.1,0.1,0.3c0,0.1,0,0.1-0.1,0.2s-0.1,0.1-0.2,0.1
		c-0.3,0-0.6-0.1-0.9-0.3S26.9,8.5,26.9,8.2z"/>
	<path class="st0" d="M30.1,8.2c0.1-0.1,0.2-0.3,0.3-0.4s0.3-0.3,0.5-0.4s0.4-0.2,0.7-0.3s0.5-0.2,0.7-0.3s0.4-0.1,0.7-0.2
		s0.4-0.1,0.5-0.1c0,0,0,0,0,0s0,0,0,0c0-0.1-0.1-0.2-0.2-0.2S33.1,6.1,33,6.1c-0.1,0-0.3-0.1-0.5-0.2s-0.5-0.2-0.8-0.3
		s-0.6-0.2-0.8-0.3s-0.4-0.1-0.5-0.2c-0.1-0.2-0.2-0.3-0.2-0.4s0.1-0.2,0.2-0.3s0.2-0.1,0.4-0.1s0.3,0,0.4,0s0.3,0.1,0.4,0.2
		s0.2,0.2,0.2,0.3l2.7,1.1c0.3,0.1,0.5,0.3,0.5,0.6c0,0.1,0,0.2-0.1,0.3s-0.2,0.1-0.3,0.1s-0.2,0-0.4,0s-0.2,0-0.3,0l-3.2,1.4
		c0,0,0,0,0,0s0,0,0,0c-0.1,0-0.1,0-0.2,0S30.2,8.3,30.1,8.2z"/>
</g>
</svg>
